<svg width="170" height="171" viewBox="0 0 170 171" fill="none" xmlns="http://www.w3.org/2000/svg">
<path d="M45.9952 91.7684C42.0976 68.647 57.0197 48.6546 79.3313 47.734C101.532 46.8176 121.719 65.1901 124.449 88.1594C127.103 110.484 112.203 128.982 91.1501 130.046C69.9952 131.115 49.7822 114.234 45.9952 91.7684Z" fill="#FFD700"/>
<path d="M0.595013 88.0682L2.77171 99.1317C3.4054 102.348 6.43278 104.827 9.53397 104.682L15.1743 104.417C16.8649 109.587 19.0437 114.521 21.6414 119.163L17.5311 122.116C15.1765 123.808 14.9334 127.299 16.9733 129.91L23.8745 138.732C25.8819 141.299 33.1607 142.821 35.498 141.168L35.5913 137.635C39.3804 141.438 43.5016 144.849 47.8789 147.815L46.2122 152.106C45.1748 154.775 46.6397 158.03 49.4718 159.38L59.077 163.955C61.8787 165.291 70.1428 165.497 71.2105 162.87L67.6969 157.541C72.5082 159.093 77.4714 160.149 82.5149 160.655L83.1964 165.137C83.6413 168.064 86.3713 170.298 89.2946 170.142L99.2427 169.603C102.157 169.445 104.193 166.956 103.787 164.034L103.166 159.558C107.962 158.531 112.511 156.979 116.763 154.955L119.521 158.772C121.303 161.239 130.003 162.503 132.349 160.904L134.988 154.864C137.344 153.252 137.833 149.928 136.073 147.429L133.241 143.409C136.63 140.074 139.643 136.333 142.217 132.25L146.717 134.541C149.43 135.922 156.985 136.628 158.191 133.938L157.92 122.915C159.137 120.184 157.918 116.814 155.186 115.394L150.407 112.909C151.587 108.147 152.282 103.144 152.442 97.9591L157.92 97.7007C160.928 97.5596 163.122 94.8778 162.82 91.6967L161.783 80.7636C161.475 77.526 158.753 75.0049 155.702 75.1417L149.819 75.4045C148.451 70.2408 146.585 65.2531 144.274 60.4998L149.27 56.9538C151.781 55.1711 152.33 51.4297 150.489 48.5851L150.038 37.12C148.174 34.2212 138.707 35.042 136.173 36.8638L130.877 40.6681C127.275 36.6857 123.31 33.0573 119.046 29.8501L121.691 23.2728C122.93 20.1916 121.539 16.3481 118.572 14.6978L113.542 8.19878C110.543 6.52678 101.968 8.55053 100.753 11.6839L98.099 18.5174C93.2617 16.7955 88.2529 15.5686 83.1421 14.9063L82.0527 7.04574C81.5579 3.47157 78.5218 0.659569 75.2731 0.778997L64.1813 1.18723C60.9216 1.30666 58.7233 4.31843 59.268 7.89912L60.4659 15.7749C55.5744 16.8215 50.9388 18.424 46.6115 20.5086L47.2278 12.2442C45.1032 9.21284 36.0492 9.96849 33.5231 11.8598L24.9444 18.2872C22.4357 20.1655 22.1601 24.1132 24.3151 27.0924L28.9072 33.4438C25.5521 36.9876 22.6137 40.9331 20.144 45.2108L19.545 41.2045C16.4417 39.5889 7.18368 41.4021 6.13331 44.4551L2.58076 54.7889C1.54558 57.7985 3.21225 61.5052 6.2939 63.073L12.4138 66.1868C11.4719 71.1485 11.0466 76.3078 11.1812 81.5996L5.11986 81.871C1.97961 82.0143 -0.0495303 84.7916 0.595013 88.0682ZM28.7053 93.5055C22.9674 61.5681 43.3714 33.6675 74.3659 32.3755C105.222 31.09 133.102 56.7627 136.637 88.5416C140.036 119.1 119.516 144.18 90.8158 145.615C61.9915 147.059 34.2219 124.205 28.7053 93.5055Z" fill="#FFD700"/>
<path d="M7.66552 87.9727L9.79231 99.0383C10.4108 102.256 13.4274 104.736 16.5307 104.589L22.1732 104.324C23.8421 109.494 25.9992 114.429 28.5752 119.072L24.4519 122.025C22.0907 123.717 21.8302 127.208 23.8594 129.818L30.7215 138.643C32.7181 141.21 36.225 141.944 38.5667 140.289L42.4448 137.546C46.2166 141.349 50.3247 144.76 54.6868 147.726L53.0005 152.017C51.9523 154.686 53.402 157.941 56.2298 159.291L65.8155 163.869C68.6128 165.204 71.74 164.157 72.8099 161.526L74.4658 157.454C79.2706 159.007 84.2294 160.062 89.2708 160.568L89.9327 165.052C90.3645 167.979 93.0859 170.216 96.0092 170.057L105.962 169.519C108.878 169.36 110.923 166.872 110.532 163.949L109.933 159.474C114.733 158.446 119.289 156.894 123.551 154.87L126.294 158.687C128.065 161.154 131.398 161.851 133.749 160.251L141.78 154.779C144.144 153.168 144.647 149.843 142.898 147.344L140.083 143.325C143.488 139.987 146.516 136.246 149.109 132.163L153.599 134.454C156.305 135.835 159.476 134.774 160.689 132.079L164.852 122.829C166.082 120.097 164.875 116.727 162.15 115.307L157.382 112.823C158.582 108.061 159.3 103.055 159.485 97.8701L164.964 97.6117C167.972 97.4705 170.179 94.7867 169.891 91.6077L168.901 80.6724C168.608 77.4348 165.898 74.9116 162.844 75.0484L156.959 75.3111C155.613 70.1475 153.768 65.1575 151.481 60.4043L156.494 56.8583C159.012 55.0756 159.58 51.332 157.751 48.4896L151.466 38.7117C149.606 35.8172 146.027 34.9443 143.486 36.7639L138.176 40.5683C134.591 36.5837 130.641 32.9574 126.392 29.7502L129.065 23.173C130.32 20.0896 128.944 16.2483 125.986 14.5958L115.838 8.93274C112.843 7.26074 109.41 8.45067 108.18 11.5819L105.495 18.4153C100.664 16.6934 95.6619 15.4666 90.5533 14.8043L89.5008 6.94153C89.0212 3.36518 85.9981 0.553184 82.7494 0.672613L71.6554 1.08084C68.3958 1.20027 66.1822 4.21205 66.7118 7.79491L67.875 15.6707C62.9769 16.7173 58.337 18.3198 53.9967 20.4044L49.3807 13.8119C47.2626 10.7871 43.4821 9.86211 40.9474 11.7556L32.3404 18.1852C29.823 20.0635 29.53 24.0111 31.672 26.9925L36.2381 33.3461C32.8656 36.8899 29.9099 40.8375 27.4228 45.1152L20.96 41.7495C17.861 40.134 14.4755 41.3065 13.4121 44.3596L9.81398 54.6934C8.76578 57.703 10.4173 61.4096 13.4903 62.9774L19.5972 66.0934C18.6314 71.0551 18.1844 76.2166 18.2951 81.5084L12.2338 81.7798C9.07832 81.9188 7.03617 84.6982 7.66552 87.9727ZM33.4711 93.5164C27.5834 60.198 48.9727 31.0401 81.3388 29.6894C113.562 28.3453 142.518 55.1776 146.01 88.3419C149.363 120.177 127.846 146.269 97.9602 147.761C67.9531 149.261 39.1201 125.493 33.4711 93.5164Z" fill="#F0E68C"/>
<path d="M50.4853 92.7346C46.6549 69.6415 61.627 49.6752 83.9255 48.7545C106.113 47.8403 126.238 66.1889 128.902 89.1301C131.492 111.426 116.55 129.903 95.5056 130.965C74.3616 132.033 54.2071 115.174 50.4853 92.7346Z" fill="#F0E68C"/>
</svg>
